<?xml version="1.0" encoding="UTF-8" standalone="no"?>
<!-- Created with Inkscape (http://www.inkscape.org/) -->

<svg
   width="658.1936"
   height="379.97412"
   viewBox="0 0 658.19361 379.97412"
   version="1.1"
   id="SVGRoot"
   inkscape:version="1.1.2 (0a00cf5339, 2022-02-04)"
   sodipodi:docname="policy-route.svg"
   xmlns:inkscape="http://www.inkscape.org/namespaces/inkscape"
   xmlns:sodipodi="http://sodipodi.sourceforge.net/DTD/sodipodi-0.dtd"
   xmlns:xlink="http://www.w3.org/1999/xlink"
   xmlns="http://www.w3.org/2000/svg"
   xmlns:svg="http://www.w3.org/2000/svg"
   xmlns:rdf="http://www.w3.org/1999/02/22-rdf-syntax-ns#"
   xmlns:cc="http://creativecommons.org/ns#"
   xmlns:dc="http://purl.org/dc/elements/1.1/">
  <sodipodi:namedview
     id="base"
     pagecolor="#ffffff"
     bordercolor="#666666"
     borderopacity="1.0"
     inkscape:pageopacity="0.0"
     inkscape:pageshadow="2"
     inkscape:zoom="1.4142136"
     inkscape:cx="377.94856"
     inkscape:cy="124.45079"
     inkscape:document-units="px"
     inkscape:current-layer="layer1"
     showgrid="false"
     inkscape:window-width="1717"
     inkscape:window-height="1046"
     inkscape:window-x="197"
     inkscape:window-y="33"
     inkscape:window-maximized="0"
     inkscape:snap-global="false"
     fit-margin-left="10"
     fit-margin-top="10"
     fit-margin-right="10"
     fit-margin-bottom="10"
     inkscape:pagecheckerboard="0" />
  <defs
     id="defs3737">
    <marker
       style="overflow:visible"
       id="Arrow2Lend"
       refX="0"
       refY="0"
       orient="auto"
       inkscape:stockid="Arrow2Lend"
       inkscape:isstock="true">
      <path
         transform="matrix(-1.1,0,0,-1.1,-1.1,0)"
         d="M 8.7185878,4.0337352 -2.2072895,0.01601326 8.7185884,-4.0017078 c -1.7454984,2.3720609 -1.7354408,5.6174519 -6e-7,8.035443 z"
         style="fill:context-stroke;fill-rule:evenodd;stroke:context-stroke;stroke-width:0.625;stroke-linejoin:round"
         id="path926" />
    </marker>
    <marker
       style="overflow:visible"
       id="Arrow1Lend"
       refX="0"
       refY="0"
       orient="auto"
       inkscape:stockid="Arrow1Lend"
       inkscape:isstock="true">
      <path
         transform="matrix(-0.8,0,0,-0.8,-10,0)"
         style="fill:context-stroke;fill-rule:evenodd;stroke:context-stroke;stroke-width:1pt"
         d="M 0,0 5,-5 -12.5,0 5,5 Z"
         id="path908" />
    </marker>
    <marker
       inkscape:isstock="true"
       style="overflow:visible"
       id="marker13099"
       refX="0"
       refY="0"
       orient="auto"
       inkscape:stockid="DotL">
      <path
         transform="matrix(0.8,0,0,0.8,5.92,0.8)"
         style="fill:#000000;fill-opacity:1;fill-rule:evenodd;stroke:#000000;stroke-width:1pt;stroke-opacity:1"
         d="m -2.5,-1 c 0,2.76 -2.24,5 -5,5 -2.76,0 -5,-2.24 -5,-5 0,-2.76 2.24,-5 5,-5 2.76,0 5,2.24 5,5 z"
         id="path13097"
         inkscape:connector-curvature="0" />
    </marker>
    <marker
       inkscape:stockid="DotL"
       orient="auto"
       refY="0"
       refX="0"
       id="marker968"
       style="overflow:visible"
       inkscape:isstock="true">
      <path
         inkscape:connector-curvature="0"
         id="path966"
         d="m -2.5,-1 c 0,2.76 -2.24,5 -5,5 -2.76,0 -5,-2.24 -5,-5 0,-2.76 2.24,-5 5,-5 2.76,0 5,2.24 5,5 z"
         style="fill:#000000;fill-opacity:1;fill-rule:evenodd;stroke:#000000;stroke-width:1pt;stroke-opacity:1"
         transform="matrix(0.8,0,0,0.8,5.92,0.8)" />
    </marker>
    <marker
       inkscape:isstock="true"
       style="overflow:visible"
       id="marker25091"
       refX="0"
       refY="0"
       orient="auto"
       inkscape:stockid="DotL">
      <path
         transform="matrix(0.8,0,0,0.8,5.92,0.8)"
         style="fill:#000000;fill-opacity:1;fill-rule:evenodd;stroke:#000000;stroke-width:1pt;stroke-opacity:1"
         d="m -2.5,-1 c 0,2.76 -2.24,5 -5,5 -2.76,0 -5,-2.24 -5,-5 0,-2.76 2.24,-5 5,-5 2.76,0 5,2.24 5,5 z"
         id="path25089"
         inkscape:connector-curvature="0" />
    </marker>
    <marker
       inkscape:stockid="DotL"
       orient="auto"
       refY="0"
       refX="0"
       id="marker16706"
       style="overflow:visible"
       inkscape:isstock="true"
       inkscape:collect="always">
      <path
         inkscape:connector-curvature="0"
         id="path16704"
         d="m -2.5,-1 c 0,2.76 -2.24,5 -5,5 -2.76,0 -5,-2.24 -5,-5 0,-2.76 2.24,-5 5,-5 2.76,0 5,2.24 5,5 z"
         style="fill:#000000;fill-opacity:1;fill-rule:evenodd;stroke:#000000;stroke-width:1pt;stroke-opacity:1"
         transform="matrix(0.8,0,0,0.8,5.92,0.8)" />
    </marker>
    <marker
       inkscape:isstock="true"
       style="overflow:visible"
       id="marker2703"
       refX="0"
       refY="0"
       orient="auto"
       inkscape:stockid="DotL"
       inkscape:collect="always">
      <path
         transform="matrix(0.8,0,0,0.8,5.92,0.8)"
         style="fill:#000000;fill-opacity:1;fill-rule:evenodd;stroke:#000000;stroke-width:1pt;stroke-opacity:1"
         d="m -2.5,-1 c 0,2.76 -2.24,5 -5,5 -2.76,0 -5,-2.24 -5,-5 0,-2.76 2.24,-5 5,-5 2.76,0 5,2.24 5,5 z"
         id="path2701"
         inkscape:connector-curvature="0" />
    </marker>
    <marker
       style="overflow:visible"
       id="Arrow1Lend-3"
       refX="0"
       refY="0"
       orient="auto"
       inkscape:stockid="Arrow1Lend"
       inkscape:isstock="true">
      <path
         transform="matrix(-0.8,0,0,-0.8,-10,0)"
         style="fill:context-stroke;fill-rule:evenodd;stroke:context-stroke;stroke-width:1pt"
         d="M 0,0 5,-5 -12.5,0 5,5 Z"
         id="path908-6" />
    </marker>
    <marker
       style="overflow:visible"
       id="Arrow1Lend-5"
       refX="0"
       refY="0"
       orient="auto"
       inkscape:stockid="Arrow1Lend"
       inkscape:isstock="true">
      <path
         transform="matrix(-0.8,0,0,-0.8,-10,0)"
         style="fill:context-stroke;fill-rule:evenodd;stroke:context-stroke;stroke-width:1pt"
         d="M 0,0 5,-5 -12.5,0 5,5 Z"
         id="path908-3" />
    </marker>
    <marker
       style="overflow:visible"
       id="Arrow2Lend-6"
       refX="0"
       refY="0"
       orient="auto"
       inkscape:stockid="Arrow2Lend"
       inkscape:isstock="true">
      <path
         transform="matrix(-1.1,0,0,-1.1,-1.1,0)"
         d="M 8.7185878,4.0337352 -2.2072895,0.01601326 8.7185884,-4.0017078 c -1.7454984,2.3720609 -1.7354408,5.6174519 -6e-7,8.035443 z"
         style="fill:context-stroke;fill-rule:evenodd;stroke:context-stroke;stroke-width:0.625;stroke-linejoin:round"
         id="path926-2" />
    </marker>
    <marker
       style="overflow:visible"
       id="Arrow1Lend-1"
       refX="0"
       refY="0"
       orient="auto"
       inkscape:stockid="Arrow1Lend"
       inkscape:isstock="true">
      <path
         transform="matrix(-0.8,0,0,-0.8,-10,0)"
         style="fill:context-stroke;fill-rule:evenodd;stroke:context-stroke;stroke-width:1pt"
         d="M 0,0 5,-5 -12.5,0 5,5 Z"
         id="path908-2" />
    </marker>
  </defs>
  <metadata
     id="metadata3740">
    <rdf:RDF>
      <cc:Work
         rdf:about="">
        <dc:format>image/svg+xml</dc:format>
        <dc:type
           rdf:resource="http://purl.org/dc/dcmitype/StillImage" />
      </cc:Work>
    </rdf:RDF>
  </metadata>
  <g
     id="layer1"
     inkscape:groupmode="layer"
     inkscape:label="Layer 1"
     transform="translate(-186.87823,-286.65161)">
    <g
       transform="translate(-22)"
       id="use2748">
      <path
         style="fill:none;stroke:#000000;stroke-width:1px;stroke-linecap:butt;stroke-linejoin:miter;stroke-opacity:1;marker-end:url(#marker2703)"
         d="M 242,332.63868 H 435"
         id="path928"
         inkscape:connector-curvature="0" />
      <path
         style="fill:none;stroke:#000000;stroke-width:1px;stroke-linecap:butt;stroke-linejoin:miter;stroke-opacity:1;marker-end:url(#marker2703)"
         d="M 242,428.63868 H 435"
         id="use930"
         inkscape:connector-curvature="0" />
      <path
         inkscape:connector-curvature="0"
         id="use932"
         d="M 242,524.6387 H 435"
         style="fill:none;stroke:#000000;stroke-width:1px;stroke-linecap:butt;stroke-linejoin:miter;stroke-opacity:1;marker-end:url(#marker2703)" />
      <path
         style="fill:none;stroke:#000000;stroke-width:1px;stroke-linecap:butt;stroke-linejoin:miter;stroke-opacity:1;marker-end:url(#marker2703)"
         d="M 242,620.63868 H 435"
         id="use934"
         inkscape:connector-curvature="0" />
      <path
         style="fill:none;stroke:#000000;stroke-width:3;stroke-linecap:butt;stroke-linejoin:miter;stroke-miterlimit:4;stroke-dasharray:none;stroke-opacity:1"
         d="M 434.70711,302 V 651"
         id="path936"
         inkscape:connector-curvature="0" />
    </g>
    <rect
       style="fill:#85a385;fill-opacity:1;stroke:#000000;stroke-width:1;stroke-miterlimit:4;stroke-dasharray:none;stroke-opacity:1"
       id="rect5305"
       width="137.05737"
       height="70.974136"
       x="197.37823"
       y="297.15161" />
    <use
       x="0"
       y="0"
       xlink:href="#rect5305"
       id="use1051"
       transform="translate(0,96)"
       width="100%"
       height="100%" />
    <use
       x="0"
       y="0"
       xlink:href="#use1051"
       id="use1053"
       transform="translate(0,96)"
       width="100%"
       height="100%" />
    <use
       x="0"
       y="0"
       xlink:href="#use1053"
       id="use1055"
       transform="translate(0,96)"
       width="100%"
       height="100%" />
    <path
       style="fill:none;stroke:#000000;stroke-width:1px;stroke-linecap:butt;stroke-linejoin:miter;stroke-opacity:1;marker-end:url(#marker16706)"
       d="M 562,399.5614 H 413"
       id="path3368"
       inkscape:connector-curvature="0" />
    <path
       style="fill:none;stroke:#000000;stroke-width:1px;stroke-linecap:butt;stroke-linejoin:miter;stroke-opacity:1;marker-end:url(#marker13099)"
       d="m 564.47324,399.76807 h 60.81118"
       id="path13095"
       inkscape:connector-curvature="0" />
    <g
       id="g886"
       transform="translate(-73.182287,39.561399)">
      <circle
         r="42.426407"
         cy="360"
         cx="597.51349"
         id="path3007"
         style="color:#000000;display:inline;overflow:visible;visibility:visible;fill:#ba7780;fill-opacity:1;fill-rule:nonzero;stroke:#000000;stroke-width:2;stroke-linecap:butt;stroke-linejoin:miter;stroke-miterlimit:4;stroke-dasharray:none;stroke-dashoffset:0;stroke-opacity:1;marker:none;enable-background:accumulate" />
      <path
         inkscape:connector-curvature="0"
         id="rect2984"
         d="m 579.12916,348.70304 v 5.625 h -17.6875 v 12.75 h 17.6875 v 5.625 l 12,-12 z"
         style="color:#000000;display:inline;overflow:visible;visibility:visible;fill:#e9e9e9;fill-opacity:1;fill-rule:nonzero;stroke:#000000;stroke-width:2;stroke-linecap:butt;stroke-linejoin:miter;stroke-miterlimit:4;stroke-dashoffset:0;stroke-opacity:1;marker:none;enable-background:accumulate" />
      <path
         style="color:#000000;display:inline;overflow:visible;visibility:visible;fill:#e9e9e9;fill-opacity:1;fill-rule:nonzero;stroke:#000000;stroke-width:2;stroke-linecap:butt;stroke-linejoin:miter;stroke-miterlimit:4;stroke-dashoffset:0;stroke-opacity:1;marker:none;enable-background:accumulate"
         d="m 616.5752,348.70304 v 5.625 h 17.6875 v 12.75 h -17.6875 v 5.625 l -12,-12 z"
         id="path3001"
         inkscape:connector-curvature="0" />
      <path
         inkscape:connector-curvature="0"
         id="path3003"
         d="m 609.49863,335.93898 h -5.625 v 17.6875 h -12.75 v -17.6875 h -5.625 l 12,-12 z"
         style="color:#000000;display:inline;overflow:visible;visibility:visible;fill:#e9e9e9;fill-opacity:1;fill-rule:nonzero;stroke:#000000;stroke-width:2;stroke-linecap:butt;stroke-linejoin:miter;stroke-miterlimit:4;stroke-dashoffset:0;stroke-opacity:1;marker:none;enable-background:accumulate" />
      <path
         style="color:#000000;display:inline;overflow:visible;visibility:visible;fill:#e9e9e9;fill-opacity:1;fill-rule:nonzero;stroke:#000000;stroke-width:2;stroke-linecap:butt;stroke-linejoin:miter;stroke-miterlimit:4;stroke-dashoffset:0;stroke-opacity:1;marker:none;enable-background:accumulate"
         d="m 609.49863,384.05289 h -5.625 v -17.6875 h -12.75 v 17.6875 h -5.625 l 12,12 z"
         id="path3005"
         inkscape:connector-curvature="0" />
    </g>
    <use
       x="0"
       y="0"
       xlink:href="#path3368"
       id="use3404"
       transform="translate(-0.12132052,160.33646)"
       width="100%"
       height="100%" />
    <path
       style="fill:none;stroke:#000000;stroke-width:1px;stroke-linecap:butt;stroke-linejoin:miter;stroke-opacity:1;marker-end:url(#marker25091)"
       d="m 558.857,561.52482 h 66.46804"
       id="path25081"
       inkscape:connector-curvature="0" />
    <use
       x="0"
       y="0"
       xlink:href="#g886"
       id="use16714"
       transform="translate(0,160.33647)"
       width="100%"
       height="100%" />
    <text
       xml:space="preserve"
       style="font-style:normal;font-weight:normal;font-size:16px;line-height:1.25;font-family:sans-serif;letter-spacing:0px;word-spacing:0px;fill:#000000;fill-opacity:1;stroke:none"
       x="204.35385"
       y="314.74454"
       id="text16734"><tspan
         sodipodi:role="line"
         id="tspan16732"
         x="204.35385"
         y="314.74454">vm-001</tspan></text>
    <text
       id="text16750"
       y="410.67535"
       x="204.35385"
       style="font-style:normal;font-weight:normal;font-size:16px;line-height:1.25;font-family:sans-serif;letter-spacing:0px;word-spacing:0px;fill:#000000;fill-opacity:1;stroke:none"
       xml:space="preserve"><tspan
         y="410.67535"
         x="204.35385"
         id="tspan16748"
         sodipodi:role="line">vm-002</tspan></text>
    <text
       xml:space="preserve"
       style="font-style:normal;font-weight:normal;font-size:16px;line-height:1.25;font-family:sans-serif;letter-spacing:0px;word-spacing:0px;fill:#000000;fill-opacity:1;stroke:none"
       x="204.35385"
       y="506.60617"
       id="text16754"><tspan
         sodipodi:role="line"
         id="tspan16752"
         x="204.35385"
         y="506.60617">vm-003</tspan></text>
    <text
       id="text16758"
       y="602.53699"
       x="204.35385"
       style="font-style:normal;font-weight:normal;font-size:16px;line-height:1.25;font-family:sans-serif;letter-spacing:0px;word-spacing:0px;fill:#000000;fill-opacity:1;stroke:none"
       xml:space="preserve"><tspan
         y="602.53699"
         x="204.35385"
         id="tspan16756"
         sodipodi:role="line">vm-004</tspan></text>
    <text
       xml:space="preserve"
       style="font-style:normal;font-weight:normal;font-size:16px;line-height:1.25;font-family:sans-serif;letter-spacing:0px;word-spacing:0px;fill:#000000;fill-opacity:1;stroke:none"
       x="494.13199"
       y="351.51407"
       id="text16762"><tspan
         sodipodi:role="line"
         id="tspan16760"
         x="494.13199"
         y="351.51407">vm-201</tspan></text>
    <text
       id="text16766"
       y="512.73444"
       x="494.19449"
       style="font-style:normal;font-weight:normal;font-size:16px;line-height:1.25;font-family:sans-serif;letter-spacing:0px;word-spacing:0px;fill:#000000;fill-opacity:1;stroke:none"
       xml:space="preserve"><tspan
         y="512.73444"
         x="494.19449"
         id="tspan16764"
         sodipodi:role="line">vm-202</tspan></text>
    <path
       style="fill:none;stroke:#000000;stroke-width:1px;stroke-linecap:butt;stroke-linejoin:miter;stroke-opacity:1;marker-end:url(#marker13099)"
       d="M 727.8246,471.2869 H 625.29412"
       id="path16784"
       inkscape:connector-curvature="0" />
    <rect
       y="437.79984"
       x="697.51447"
       height="70.974136"
       width="137.05737"
       id="rect16780"
       style="fill:#8591a3;fill-opacity:1;stroke:#000000;stroke-width:1;stroke-miterlimit:4;stroke-dasharray:none;stroke-opacity:1" />
    <text
       id="text25191"
       y="456.36331"
       x="767.42261"
       style="font-style:normal;font-weight:normal;font-size:16px;line-height:1.25;font-family:sans-serif;letter-spacing:0px;word-spacing:0px;fill:#000000;fill-opacity:1;stroke:none"
       xml:space="preserve"><tspan
         y="456.36331"
         x="767.42261"
         id="tspan25189"
         sodipodi:role="line">vm-221</tspan></text>
    <text
       xml:space="preserve"
       style="font-style:normal;font-weight:normal;font-size:12px;line-height:1.25;font-family:sans-serif;letter-spacing:0px;word-spacing:0px;fill:#000000;fill-opacity:1;stroke:none"
       x="304.96506"
       y="337.0574"
       id="text25215"><tspan
         sodipodi:role="line"
         id="tspan25213"
         x="304.96506"
         y="337.0574">eth1</tspan></text>
    <path
       style="fill:none;stroke:#000000;stroke-width:3;stroke-linecap:butt;stroke-linejoin:miter;stroke-miterlimit:4;stroke-dasharray:none;stroke-opacity:1"
       d="M 625.29413,332.05826 V 626.21468"
       id="path16822"
       inkscape:connector-curvature="0" />
    <text
       id="text25227"
       y="475.14066"
       x="701.15662"
       style="font-style:normal;font-weight:normal;font-size:12px;line-height:1.25;font-family:sans-serif;letter-spacing:0px;word-spacing:0px;fill:#000000;fill-opacity:1;stroke:none"
       xml:space="preserve"><tspan
         y="475.14066"
         x="701.15662"
         id="tspan25225"
         sodipodi:role="line">eth1</tspan></text>
    <path
       style="font-variation-settings:normal;opacity:1;vector-effect:none;fill:none;fill-opacity:1;stroke:#000000;stroke-width:0.5;stroke-linecap:butt;stroke-linejoin:miter;stroke-miterlimit:4;stroke-dasharray:2, 2;stroke-dashoffset:0;stroke-opacity:1;-inkscape-stroke:none;marker-end:url(#Arrow1Lend);stop-color:#000000;stop-opacity:1"
       d="M 689.01082,481.37054 578.12436,550.60787"
       id="path1206" />
    <path
       style="font-variation-settings:normal;opacity:1;vector-effect:none;fill:none;fill-opacity:1;stroke:#000000;stroke-width:0.5;stroke-linecap:butt;stroke-linejoin:miter;stroke-miterlimit:4;stroke-dasharray:2, 2;stroke-dashoffset:0;stroke-opacity:1;-inkscape-stroke:none;marker-end:url(#Arrow1Lend);stop-color:#000000;stop-opacity:1"
       d="M 347.80302,418.49936 471.8688,406.86283"
       id="path1208" />
    <text
       xml:space="preserve"
       style="font-size:10.6667px;line-height:1.25;font-family:sans-serif"
       x="636.88"
       y="525.58362"
       id="text3843"><tspan
         sodipodi:role="line"
         id="tspan3841"
         x="636.88"
         y="525.58362">Default route</tspan></text>
    <use
       x="0"
       y="0"
       xlink:href="#text3843"
       id="use4827"
       transform="translate(-222.75943,-101.52381)"
       width="100%"
       height="100%" />
    <path
       style="fill:none;stroke:#ff0000;stroke-width:1;stroke-linecap:butt;stroke-linejoin:miter;stroke-miterlimit:4;stroke-dasharray:3, 3;stroke-dashoffset:0;stroke-opacity:1;marker-end:url(#Arrow2Lend)"
       d="m 678.37971,481.52621 c -13.17578,7.36513 -26.53927,14.56278 -37.62085,25.06393 -9.47855,10.15789 -23.12967,11.42612 -35.08547,15.82703 -12.66695,1.83422 -21.02546,11.96058 -32.46917,16.73563 -12.40434,6.73101 -26.73508,4.25656 -39.64506,7.77306 -10.772,2.35141 -21.65224,4.08471 -32.7455,1.62297 -10.68462,-1.06286 -20.47308,-3.9937 -29.86022,-9.19293 -11.04865,-5.66278 -23.20393,-7.69382 -35.32418,-10.17295 -8.81839,-2.12127 -17.26295,-7.29021 -25.23469,-11.91535 -7.20748,-5.096 -11.33213,-17.62347 -15.40695,-26.85597 -5.62252,-9.04632 -8.51651,-17.40342 -13.83232,-26.42632 -2.06342,-11.59419 -16.50623,-18.4566 -21.10273,-24.94471 -1.26404,-0.85718 -2.81261,-1.21172 -3.94941,-2.27178"
       id="path4862" />
    <path
       style="font-variation-settings:normal;opacity:1;vector-effect:none;fill:none;fill-opacity:1;stroke:#ff0000;stroke-width:1;stroke-linecap:butt;stroke-linejoin:miter;stroke-miterlimit:4;stroke-dasharray:3, 3;stroke-dashoffset:0;stroke-opacity:1;-inkscape-stroke:none;marker-end:url(#Arrow2Lend);stop-color:#000000;stop-opacity:1"
       d="m 353.95154,410.46889 c 13.91343,-5.32393 29.00966,-4.96947 43.25733,-8.12915 13.38501,-3.89279 27.29253,-4.79839 40.6846,-8.49227 15.05764,-2.50618 30.36989,1.17798 45.39941,-2.0733 12.81467,-2.1516 25.78813,-0.42943 38.58607,-2.77556 14.74898,-2.07473 29.58818,-0.005 44.3538,-1.78177 16.24669,-1.25763 32.6705,-0.0399 48.18953,5.16548 14.24116,4.08025 30.92004,9.30551 37.51282,23.94014 6.23797,15.58086 22.782,23.75309 28.15955,39.8098"
       id="path4864" />
    <path
       style="fill:none;stroke:#000000;stroke-width:0.5;stroke-linecap:butt;stroke-linejoin:miter;stroke-opacity:1;font-variation-settings:normal;opacity:1;vector-effect:none;fill-opacity:1;stroke-miterlimit:4;stroke-dasharray:2, 2;stroke-dashoffset:0;-inkscape-stroke:none;marker-end:url(#Arrow1Lend);stop-color:#000000;stop-opacity:1"
       d="M 471.01223,547.01696 347.66953,445.64217"
       id="path7630" />
    <text
       xml:space="preserve"
       style="font-size:10.6667px;line-height:1.25;font-family:sans-serif"
       x="423.62347"
       y="502.66083"
       id="text9671"><tspan
         sodipodi:role="line"
         id="tspan9669"
         x="423.62347"
         y="502.66083">VIP route</tspan></text>
  </g>
</svg>
